<svg width="220" height="216" viewBox="0 0 220 216" fill="none" xmlns="http://www.w3.org/2000/svg">
<rect y="71" width="220" height="145" rx="20" fill="black"/>
<path d="M98 22.8113V18C98 10.8203 103.82 5 111 5C118.18 5 124 10.8203 124 18V29.849C124 37.0288 118.18 42.8491 111 42.8491C103.82 42.8491 98 48.6694 98 55.8491V66" stroke="black" stroke-width="10"/>
<path d="M74.26 134.64L74.32 129.9L74.38 121.08C74.42 119.8 74.44 118.48 74.44 117.12C74.44 115.76 74.44 114.36 74.44 112.92C74.44 111.48 74.44 110.2 74.44 109.08C74.44 107.96 74.48 106.7 74.56 105.3V105.06C74.6 104.66 74.62 104.26 74.62 103.86C74.66 103.42 74.68 102.98 74.68 102.54C74.72 101.82 74.94 101.04 75.34 100.2C75.62 99.64 76.04 99.16 76.6 98.76C77.24 98.44 77.86 98.28 78.46 98.28C78.78 98.28 79.06 98.3 79.3 98.34C79.58 98.34 79.84 98.36 80.08 98.4C80.6 98.48 81.06 98.72 81.46 99.12C81.7 99.32 81.92 99.64 82.12 100.08C82.2 100.32 82.26 100.56 82.3 100.8C82.38 101 82.44 101.22 82.48 101.46C82.52 101.74 82.54 102 82.54 102.24C82.58 102.48 82.6 102.72 82.6 102.96C82.6 103.24 82.58 103.5 82.54 103.74C82.54 103.94 82.54 104.16 82.54 104.4V105.42L82.18 136.56V137.16C82.18 137.28 82.16 137.44 82.12 137.64C82.12 137.8 82.1 138 82.06 138.24C81.98 138.44 81.9 138.66 81.82 138.9C81.78 139.1 81.72 139.32 81.64 139.56C81.52 139.76 81.38 139.96 81.22 140.16C81.1 140.32 80.94 140.48 80.74 140.64C80.42 140.96 79.9 141.18 79.18 141.3C78.1 141.54 77.08 141.44 76.12 141C75.64 140.68 75.3 140.28 75.1 139.8C74.98 139.68 74.92 139.56 74.92 139.44C74.88 139.36 74.84 139.3 74.8 139.26C74.76 139.22 74.72 139.16 74.68 139.08C74.6 138.88 74.54 138.68 74.5 138.48C74.46 138.24 74.44 138 74.44 137.76C74.4 137.56 74.36 137.36 74.32 137.16C74.32 136.96 74.3 136.76 74.26 136.56C74.22 136.24 74.22 135.9 74.26 135.54V134.64Z" fill="white"/>
<path d="M148.52 100.38C148.96 100.9 149.18 101.44 149.18 102C149.18 102.24 149.16 102.5 149.12 102.78C149.12 103.02 149.1 103.24 149.06 103.44C148.94 103.88 148.68 104.3 148.28 104.7C147.96 104.94 147.52 105.12 146.96 105.24C146.68 105.32 146.4 105.38 146.12 105.42C145.84 105.46 145.54 105.52 145.22 105.6C144.94 105.64 144.66 105.66 144.38 105.66C144.1 105.66 143.8 105.66 143.48 105.66H140.42C139.7 105.7 138.98 105.72 138.26 105.72C137.58 105.72 136.9 105.72 136.22 105.72C136.26 106.96 136.28 108.3 136.28 109.74C136.28 111.14 136.26 112.78 136.22 114.66C136.22 116.54 136.2 118.72 136.16 121.2C136.16 123.68 136.16 126.56 136.16 129.84V134.4C136.16 134.8 136.18 135.1 136.22 135.3C136.22 135.46 136.22 135.62 136.22 135.78C136.22 135.9 136.2 136.06 136.16 136.26C136.08 136.62 136.02 137.04 135.98 137.52C135.98 137.72 135.96 137.92 135.92 138.12C135.88 138.28 135.82 138.46 135.74 138.66C135.58 138.82 135.5 138.94 135.5 139.02L135.32 139.38C135.12 139.78 134.74 140.16 134.18 140.52C133.3 140.96 132.32 141.06 131.24 140.82C130.56 140.74 130.04 140.56 129.68 140.28C129.32 139.92 129.06 139.56 128.9 139.2C128.66 138.76 128.52 138.34 128.48 137.94C128.36 137.58 128.3 137.2 128.3 136.8V105.96C128.06 105.96 127.56 105.96 126.8 105.96C126.04 105.96 125.22 105.96 124.34 105.96C123.5 105.92 122.7 105.88 121.94 105.84C121.18 105.8 120.66 105.76 120.38 105.72C120.14 105.68 119.76 105.62 119.24 105.54C118.76 105.46 118.36 105.38 118.04 105.3C117.2 105.06 116.54 104.68 116.06 104.16C115.62 103.64 115.4 103.06 115.4 102.42C115.4 102.18 115.4 101.94 115.4 101.7C115.4 101.46 115.44 101.24 115.52 101.04C115.64 100.56 115.96 100.16 116.48 99.84C116.64 99.72 116.88 99.58 117.2 99.42C117.56 99.22 117.9 99.08 118.22 99C118.7 98.84 119.3 98.72 120.02 98.64C120.34 98.6 120.66 98.58 120.98 98.58C121.3 98.58 121.64 98.58 122 98.58C123.4 98.58 124.72 98.58 125.96 98.58C127.24 98.58 128.58 98.56 129.98 98.52C132.3 98.48 134.6 98.48 136.88 98.52C139.2 98.52 141.5 98.56 143.78 98.64C144.3 98.68 144.8 98.74 145.28 98.82C145.76 98.9 146.24 99.04 146.72 99.24C147.08 99.36 147.42 99.52 147.74 99.72C148.06 99.88 148.32 100.1 148.52 100.38Z" fill="white"/>
<rect x="38" y="158" width="144.276" height="40" rx="10" fill="white"/>
<path d="M162.098 212.497L170.481 189.157L177.766 196.115L162.098 212.497Z" fill="white"/>
<path d="M35 167L183 167" stroke="black" stroke-width="2"/>
<path d="M35 189L183 189" stroke="black" stroke-width="2"/>
<path d="M46 158V202" stroke="black"/>
<path d="M77 158V202" stroke="black"/>
<path d="M88 158V202" stroke="black"/>
<path d="M99 158V202" stroke="black"/>
<path d="M110 158V202" stroke="black"/>
<path d="M145 154V198" stroke="black"/>
<path d="M157 155V199" stroke="black"/>
<path d="M169 155V198" stroke="black"/>
<path d="M179 155V199" stroke="black"/>
<path d="M133 154V198" stroke="black"/>
<path d="M121 154V198" stroke="black"/>
<path d="M66 158V202" stroke="black"/>
<path d="M55 158V202" stroke="black"/>
<path d="M165 198H179" stroke="black"/>
</svg>
